# AST/ASF file generated using VICON BodyLanguage
# -----------------------------------------------
:version 1.10
:name VICON
:units
  mass 1.0
  length 0.45
  angle deg
:documentation
   .ast/.asf automatically generated from VICON data using
   VICON BodyBuilder and BodyLanguage model FoxedUp or BRILLIANT.MOD
:root
   order TX TY TZ RX RY RZ
   axis XYZ
   position 0 0 0  
   orientation 0 0 0 
:bonedata
  begin
     id 1 
     name lhipjoint
     direction 0.623415 -0.642378 0.445763 
     length 2.49859 
     axis 0 0 0  XYZ
  end
  begin
     id 2 
     name lfemur
     direction 0.34202 -0.939693 0  
     length 6.69689  
     axis 0 0 20  XYZ
    dof rx ry rz
    limits (-160.0 20.0)
           (-70.0 70.0)
           (-60.0 70.0)
  end
  begin
     id 3 
     name ltibia
     direction 0.34202 -0.939693 0   
     length 7.37574   
     axis 0 0 20   XYZ
    dof rx
    limits (-10.0 170.0)
  end
  begin
     id 4 
     name lfoot
     direction 0.084323 -0.231675 0.969132   
     length 2.09111   
     axis -90 7.62852e-016 20   XYZ
    dof rx rz
    limits (-45.0 90.0)
           (-70.0 20.0)
  end
  begin
     id 5 
     name ltoes
     direction 1.5357e-011 -4.21957e-011 1   
     length 1.04989   
     axis -90 7.62852e-016 20   XYZ
    dof rx
    limits (-90.0 20.0)
  end
  begin
     id 6 
     name rhipjoint
     direction -0.605402 -0.653903 0.45376   
     length 2.45455  
     axis 0 0 0  XYZ 
  end
  begin
     id 7 
     name rfemur
     direction -0.34202 -0.939693 0   
     length 6.64523   
     axis 0 0 -20   XYZ
    dof rx ry rz
    limits (-160.0 20.0)
           (-70.0 70.0)
           (-70.0 60.0)
  end
  begin
     id 8 
     name rtibia
     direction -0.34202 -0.939693 0   
     length 7.3339   
     axis 0 0 -20   XYZ
    dof rx
    limits (-10.0 170.0)
 end
 begin
     id 9 
     name rfoot
     direction -0.120854 -0.332043 0.93549   
     length 2.23135  
     axis -90 -7.62852e-016 -20   XYZ
    dof rx rz
    limits (-45.0 90.0)
           (-20.0 70.0)
  end
  begin
     id 10 
     name rtoes
     direction -1.53563e-011 -4.21914e-011 1   
     length 1.10614   
     axis -90 -7.62852e-016 -20   XYZ
    dof rx
    limits (-90.0 20.0)
  end
  begin
     id 11 
     name lowerback
     direction 0.0319682 0.998615 -0.0417941   
     length 2.02718   
     axis 0 0 0   XYZ
    dof rx ry rz
    limits (-20.0 45.0)
           (-30.0 30.0)
           (-30.0 30.0)
  end
  begin
     id 12 
     name upperback
     direction 7.63181e-005 0.995808 0.0914691   
     length 1.97539   
     axis 0 0 0   XYZ
    dof rx ry rz
    limits (-20.0 45.0)
           (-30.0 30.0)
           (-30.0 30.0)
  end
  begin
     id 13 
     name thorax
     direction -0.016423 0.993627 0.111514   
     length 2.00349   
     axis 0 0 0   XYZ
    dof rx ry rz
    limits (-20.0 45.0)
           (-30.0 30.0)
           (-30.0 30.0)
  end
  begin
     id 14 
     name lowerneck
     direction -0.174763 0.981668 -0.0760716   
     length 1.71436   
     axis 0 0 0   XYZ
    dof rx ry rz
    limits (-20.0 45.0)
           (-30.0 30.0)
           (-30.0 30.0)
  end
  begin
     id 15 
     name upperneck
     direction 0.345458 0.934587 -0.0848868   
     length 1.72805   
     axis 0 0 0   XYZ
    dof rx ry rz
    limits (-20.0 45.0)
           (-30.0 30.0)
           (-30.0 30.0)
  end
  begin
     id 16
     name head
     direction 0.13001 0.989848 -0.0574291  
     length 1.767  
     axis 0 0 0   XYZ
    dof rx ry rz
    limits (-20.0 45.0)
           (-30.0 30.0)
           (-30.0 30.0)
  end
  begin
     id 17 
     name lclavicle
     direction 0.952951 0.290122 0.0878234  
     length 3.54654  
     axis 0 0 0   XYZ
    dof ry rz
    limits (-20.0 10.0)
           (0.0 20.0)
  end
  begin
     id 18 
     name lhumerus
     direction 1 -4.48957e-011 -4.56525e-028   
     length 5.19807   
     axis 180 -30 -90   XYZ
    dof rx ry rz
    limits (-60.0 90.0)
           (-90.0 90.0)
           (-90.0 90.0)
  end
  begin
     id 19
     name lradius
     direction 1 -4.48979e-011 -2.0317e-027   
     length 3.0937   
     axis 180 -30 -90   XYZ
    dof rx
    limits (-10.0 170.0)
  end
  begin
     id 20
     name lwrist
     direction 1 -4.48953e-011 -3.05809e-027   
     length 1.54685   
     axis 8.48514e-016 90 90   XYZ
    dof ry
    limits (-180.0 0.0)
 end
  begin
     id 21 
     name lhand
     direction 1 -4.48952e-011 -6.11639e-027   
     length 0.672632   
     axis 3.9013e-015 90 90   XYZ
    dof rx rz
    limits (-90.0 90.0)
           (-45.0 45.0)
  end
  begin
     id 22 
     name lfingers
     direction 1 -4.48925e-011 -1.22426e-026   
     length 0.542293   
     axis 7.80276e-015 90 90   XYZ
    dof rx
    limits (0.0 90.0)
  end
  begin
     id 23
     name lthumb
     direction 0.707107 -6.3486e-011 0.707107   
     length 0.778628   
     axis -90 45 5.37419e-014   XYZ
    dof rx rz
    limits (-45.0 45.0)
           (-45.0 45.0)
  end
  begin
     id 24 
     name rclavicle
     direction -0.960732 0.273675 -0.0457849   
     length 3.52079  
     axis 0 0 0   XYZ 
    dof ry rz
    limits (-10.0 20.0)
           (-20.0 0.0)
  end
  begin
     id 25 
     name rhumerus
     direction -1 -4.48976e-011 -1.63613e-027  
     length 5.45222   
     axis 180 30 90   XYZ
    dof rx ry rz
    limits (-90.0 60.0)
           (-90.0 90.0)
           (-90.0 90.0)
  end
  begin
     id 26 
     name rradius
     direction -1 -4.48957e-011 -7.00033e-028   
     length 3.01284   
     axis 180 30 90   XYZ
    dof rx
    limits (-10.0 170.0)
  end
  begin
     id 27 
     name rwrist
     direction -1 -4.48983e-011 -3.05543e-027   
     length 1.50642   
     axis 8.48514e-016 -90 -90   XYZ
    dof ry
    limits (-180.0 0.0)
  end
  begin
     id 28
     name rhand
     direction -1 -4.48984e-011 -6.11072e-027   
     length 0.622296   
     axis 3.9013e-015 -90 -90   XYZ
    dof rx rz
    limits (-90.0 90.0)
           (-45.0 45.0)
  end
  begin
     id 29
     name rfingers
     direction -1 -4.48865e-011 -1.22637e-026   
     length 0.501711   
     axis 7.80276e-015 -90 -90   XYZ
    dof rx
    limits (0.0 90.0)
  end
  begin
     id 30
     name rthumb
     direction -0.707107 -6.34932e-011 0.707107   
     length 0.72036   
     axis -90 -45 -5.37419e-014   XYZ
    dof rx rz
    limits (-45.0 45.0)
           (-45.0 45.0)
  end
:hierarchy
  begin
    root lhipjoint rhipjoint lowerback
    lhipjoint lfemur
    lfemur ltibia
    ltibia lfoot
    lfoot ltoes
    rhipjoint rfemur
    rfemur rtibia
    rtibia rfoot
    rfoot rtoes
    lowerback upperback
    upperback thorax
    thorax lowerneck lclavicle rclavicle
    lowerneck upperneck
    upperneck head
    lclavicle lhumerus
    lhumerus lradius
    lradius lwrist
    lwrist lhand lthumb
    lhand lfingers
    rclavicle rhumerus
    rhumerus rradius
    rradius rwrist
    rwrist rhand rthumb
    rhand rfingers
  end

#!OML:ASF H:\Not Pregnant\Project 1\Capture day 1\Session 1\non-pregnant.ASF
:FULLY-SPECIFIED
:DEGREES
1289
root 5.72019 8.67898 17.2557 49.5893 9.28796 -3.03733
lowerback 23.6848 -2.31726 3.49805
upperback -2.04802 -1.19736 5.39761
thorax -15.7691 -0.488815 4.73099
lowerneck -6.409 -15.3108 -24.7278
upperneck -39.2934 -12.8658 50.9378
head -1.77114 -9.21425 27.1994
rclavicle -1.2921e-014 -1.73937e-014
rhumerus 27.6192 50.6547 -55.1857
rradius 27.6875
rwrist 26.2019
rhand -43.4887 -15.8299
rfingers 7.12502
rthumb -16.329 -45.1625
lclavicle -1.2921e-014 -1.73937e-014
lhumerus 6.26764 -23.1838 84.1264
lradius 20.5216
lwrist -2.16163
lhand -40.4614 -48.4492
lfingers 7.12502
lthumb -13.4125 -18.901
rfemur -148.215 5.3386 36.1458
rtibia 111.708
rfoot -8.55004 6.91354
rtoes -2.28884
lfemur 24.3743 -13.5755 -16.7101
ltibia -4.13472e-014
lfoot -0.272208 -1.51754
ltoes -18.7449
1290
root 5.72471 8.65508 17.2668 49.525 9.26373 -3.02875
lowerback 23.6995 -2.33222 3.5705
upperback -2.17926 -1.18514 5.41112
thorax -15.9406 -0.485591 4.71283
lowerneck -6.71235 -15.3284 -24.631
upperneck -39.4923 -12.7743 51.0439
head -1.80214 -9.16655 27.3193
rclavicle -1.27222e-014 3.97569e-016
rhumerus 27.0816 50.7894 -55.5793
rradius 27.7157
rwrist 26.213
rhand -43.4787 -15.8591
rfingers 7.12502
rthumb -16.3193 -45.1924
lclavicle -1.27222e-014 3.97569e-016
lhumerus 5.92254 -23.0871 84.4684
lradius 20.3679
lwrist -2.17017
lhand -40.4114 -48.3464
lfingers 7.12502
lthumb -13.3644 -18.795
rfemur -148.355 5.32573 36.1868
rtibia 111.981
rfoot -8.59396 6.92571
rtoes -2.11154
lfemur 24.5511 -13.5618 -16.7864
ltibia -2.8625e-014
lfoot -0.391712 -1.51278
ltoes -18.7014
1291
root 5.72878 8.63156 17.2771 49.4534 9.23903 -3.03484
lowerback 23.7231 -2.33898 3.63821
upperback -2.30233 -1.16311 5.42416
thorax -16.1083 -0.47781 4.69325
lowerneck -7.00102 -15.3499 -24.5275
upperneck -39.6939 -12.6913 51.1514
head -1.83391 -9.12615 27.4364
rclavicle -4.88016e-014 1.2921e-014
rhumerus 26.5241 50.9093 -56.0093
rradius 27.7633
rwrist 25.9534
rhand -43.5527 -15.7126
rfingers 7.12502
rthumb -16.3906 -45.0401
lclavicle -4.88016e-014 1.2921e-014
lhumerus 5.58488 -22.9961 84.8147
lradius 20.2261
lwrist -2.07509
lhand -40.3421 -48.2431
lfingers 7.12502
lthumb -13.2976 -18.6873
rfemur -148.482 5.32583 36.2382
rtibia 112.243
rfoot -8.63392 6.93927
rtoes -1.88968
lfemur 24.7338 -13.5381 -16.8514
ltibia -5.40694e-014
lfoot -0.514926 -1.51394
ltoes -18.6912
1292
root 5.73132 8.60997 17.2867 49.4083 9.20743 -3.05329
lowerback 23.7241 -2.33037 3.68403
upperback -2.42303 -1.12901 5.43652
thorax -16.2601 -0.463254 4.6793
lowerneck -7.25289 -15.3725 -24.4133
upperneck -39.9241 -12.6132 51.2615
head -1.88137 -9.09468 27.5665
rclavicle -2.95195e-014 -1.17283e-014
rhumerus 25.9761 51.0153 -56.445
rradius 27.8241
rwrist 25.4542
rhand -43.7123 -15.3957
rfingers 7.12502
rthumb -16.5442 -44.7104
lclavicle -2.95195e-014 -1.17283e-014
lhumerus 5.26037 -22.9537 85.1455
lradius 20.1068
lwrist -1.88827
lhand -40.2915 -48.1569
lfingers 7.12502
lthumb -13.2488 -18.598
rfemur -148.608 5.3557 36.2916
rtibia 112.475
rfoot -8.66598 6.95456
rtoes -1.65736
lfemur 24.879 -13.5014 -16.8984
ltibia -5.725e-014
lfoot -0.630933 -1.52073
ltoes -18.7226
1293
root 5.73332 8.58877 17.2954 49.372 9.1727 -3.08044
lowerback 23.7109 -2.31239 3.72437
upperback -2.53617 -1.08607 5.44546
thorax -16.3948 -0.444992 4.65958
lowerneck -7.4965 -15.4003 -24.2895
upperneck -40.1552 -12.5435 51.3683
head -1.92935 -9.06955 27.6856
rclavicle 4.37326e-014 2.83268e-015
rhumerus 25.4341 51.0891 -56.8884
rradius 27.8914
rwrist 24.841
rhand -43.9085 -14.9586
rfingers 7.12502
rthumb -16.7332 -44.2575
lclavicle 4.37326e-014 2.83268e-015
lhumerus 4.94514 -22.9213 85.4688
lradius 20.0097
lwrist -1.69235
lhand -40.2756 -48.1131
lfingers 7.12502
lthumb -13.2335 -18.5531
rfemur -148.739 5.40025 36.3528
rtibia 112.687
rfoot -8.68277 6.98004
rtoes -1.45564
lfemur 25.0127 -13.4561 -16.9382
ltibia 1.24042e-013
lfoot -0.748217 -1.52517
ltoes -18.8139
1294
root 5.73413 8.56916 17.3031 49.3707 9.13036 -3.10528
lowerback 23.667 -2.28599 3.74278
upperback -2.6519 -1.04098 5.45232
thorax -16.5142 -0.424343 4.64738
lowerneck -7.71897 -15.4301 -24.1603
upperneck -40.3957 -12.4802 51.4693
head -1.98433 -9.0502 27.8004
rclavicle 2.39536e-014 -3.65764e-014
rhumerus 24.9016 51.1321 -57.3332
rradius 27.9629
rwrist 24.2252
rhand -44.1123 -14.4542
rfingers 7.12502
rthumb -16.9293 -43.7364
lclavicle 2.39536e-014 -3.65764e-014
lhumerus 4.63629 -22.8924 85.7775
lradius 19.9363
lwrist -1.52374
lhand -40.2987 -48.0977
lfingers 7.12502
lthumb -13.2557 -18.5392
rfemur -148.888 5.46266 36.4095
rtibia 112.871
rfoot -8.68724 7.01084
rtoes -1.31583
lfemur 25.1016 -13.407 -16.9724
ltibia 2.22639e-014
lfoot -0.856832 -1.52761
ltoes -18.9207
